<svg xmlns="http://www.w3.org/2000/svg" viewBox="0 0 76.14 11">
	<path class="cls-1" d="M66.62,11c-3.23,0-4.79-2.62-6-4.73S58.55,3,57.09,3s-2.26,1.24-3.47,3.27S50.81,11,47.58,11s-4.79-2.62-6-4.73S39.51,3,38.06,3s-2.26,1.24-3.47,3.27S31.78,11,28.54,11s-4.79-2.62-6-4.73S20.48,3,19,3s-2.26,1.24-3.47,3.27S12.75,11,9.52,11s-4.79-2.62-6-4.73S1.45,3,0,3V0C3.23,0,4.79,2.62,6,4.73S8.06,8,9.52,8,11.78,6.76,13,4.73,15.8,0,19,0s4.79,2.63,6,4.73S27.09,8,28.54,8,30.81,6.76,32,4.73,34.83,0,38.06,0s4.79,2.62,6,4.73S46.13,8,47.58,8,49.84,6.76,51,4.73,53.86,0,57.09,0s4.8,2.62,6.05,4.73S65.16,8,66.62,8s2.27-1.24,3.47-3.27S72.91,0,76.14,0V3c-1.45,0-2.27,1.24-3.47,3.27S69.85,11,66.62,11Z"/>
</svg>