<?xml version="1.0" encoding="utf-8"?>
<!-- Generator: Adobe Illustrator 19.1.0, SVG Export Plug-In . SVG Version: 6.00 Build 0)  -->
<svg version="1.1" class="audio_player"
	 viewBox="0 0 186.7 186.7" xml:space="preserve">
<g>
	<path style="fill:#00411E;" d="M182.7,186.7H4c-2.2,0-4-1.8-4-4V4c0-2.2,1.8-4,4-4h178.7c2.2,0,4,1.8,4,4v178.7
		C186.7,184.9,184.9,186.7,182.7,186.7z"/>
	<path style="fill:#737A00;" d="M118.8,88.8c1.5-4.4,3.1-8.8,4.6-13.3c0.7-2.2,1.3-4.6,4.1-4.7c2.9-0.1,3.5,2.4,4.5,4.4
		c2.1,4.6,4.1,9.2,6.1,13.8c0.8,1.7,1.2,3.8,3.8,3.3c2.5-0.4,5.3,1.2,7.1-2.5c2.4-4.9,7.7-6.5,12.6-4.9c4.5,1.5,7.6,6.1,7.3,10.8
		c-0.4,5.1-4.1,9.2-9.3,10c-3.8,0.6-7.1-0.6-9.4-3.6c-1.7-2.3-3.6-2.6-6.1-2.6c-11.1,0-8.5,1.4-13.1-8.5c-0.8-1.8-1.7-3.6-2.9-6.3
		c-2.3,6.7-4.2,12.4-6.2,18.2c-0.4,1.1-0.8,2.1-1.1,3.2c-0.6,2.1-1.8,3.3-4,3.2c-2.4-0.1-3.2-1.8-3.5-3.8
		c-1.3-7.7-2.6-15.4-3.8-23.1c-1.5-9.3-3.1-18.6-5.3-27.9c-0.8,7-1.5,13.9-2.3,20.9c-2.2,21.3-4.4,42.5-6.7,63.8
		c-0.8,7.3-1.5,14.5-2.2,21.8c-0.2,2.4-1.1,4.4-3.7,4.4c-2.9,0-3.6-2.2-3.9-4.7c-1.3-11.7-2.6-23.5-4-35.2
		c-1.8-15.6-3.5-31.2-5.9-46.8c-1.3,9.5-2.6,18.9-3.9,28.4c-0.4,3.2-1,6.5-1.4,9.7c-0.3,2.4-1.2,4.2-3.8,4.3c-2.5,0.1-3.3-1.9-3.8-4
		c-2.3-9.8-4.6-19.6-6.9-29.4c-0.2-0.8-0.5-1.7-1-3.3c-1.9,4.2-3.7,7.7-5.2,11.3c-1.1,2.7-2.8,4-5.8,3.7c-1.6-0.2-3.3,0.1-4.9,0
		c-1.9-0.1-3.2,0.4-4.4,2.1c-3.1,4.1-8,5.3-12.4,3.5c-4.1-1.7-7-6.2-6.7-10.4c0.3-4.9,3.6-8.7,8.4-9.9c4.7-1.1,9.3,0.8,11.6,5.5
		c1.4,2.7,3.4,1.9,5.4,2.1c2.1,0.3,2.8-1,3.5-2.6c2.6-5.7,5.2-11.4,7.8-17.2c0.8-1.8,1.8-3.5,4-3.4c2.4,0.1,3.2,2,3.7,4.1
		c1.7,7.5,3.5,14.9,5.9,22.4c0.7-4.5,1.4-9.1,2-13.6c1.6-11.3,3.1-22.7,4.6-34c0.3-2.6,0.8-4.9,4-4.8c3,0.1,3.4,2.4,3.6,4.8
		c2.8,24.7,5.6,49.5,8.4,74.2c0,0.3,0.2,0.6,0.6,1.5c1.3-2.8,1.2-5.4,1.5-7.8c2.8-26.3,5.5-52.5,8.2-78.8c0.4-3.8,0.7-7.5,1-11.3
		c0.2-2.3,0.8-4.3,3.6-4.4c2.7-0.1,3.6,1.6,4,4.1c3.5,21.1,7.1,42.1,10.7,63.2C118.2,88.7,118.5,88.7,118.8,88.8z"/>
	<circle style="opacity:0.91;fill:#011E0D;" cx="86.5" cy="90.2" r="32.1"/>
</g>
<polygon class="play" style="fill:#FFFFFF;" points="78,75.6 103.5,90.3 78,105 "/>
<path class="pause" style="fill:#FFFFFF;" d="M99,102.7H74v-25h25V102.7z M88.5,77.6h-4v25h4V77.6z"/>
</svg>
