<svg version="1.1" id="Layer_1" xmlns="http://www.w3.org/2000/svg" xmlns:xlink="http://www.w3.org/1999/xlink" x="0px" y="0px"
	 viewBox="0 0 64 64" xml:space="preserve">
	<circle style="fill:#E6E6E6;" cx="32" cy="32" r="32"/>
	<path style="fill:#333333;" d="M43.1,48.9c-1.9,3.7-4.7,7.3-8.4,9.3c-3.2,1.7-7.8,2.3-10.6-0.5c-1.4-1.4-2.2-3.3-2.5-5.2
	c-1.3-7.1,1.3-15.1,3.5-21.8c1.4-4.3,5-7.4,9.4-8.4l4.2-0.9c0,0,0.5,0,0.5,0c-1,3.1-8.1,25.7-6.6,27.9c0.7,1,2.1,1.2,3.2,0.8
	c1.9-0.6,2.9-2.8,4.8-3.4C41.8,46.6,43.1,47.7,43.1,48.9z M37.6,6.3c2.7,0,4.6,2.7,3.3,5.2c-1.2,2.4-3.4,3.6-6.4,3.6
	c-1,0-1.9-0.1-2.8-0.4c-1.9-0.5-2.9-2.8-2-4.6c0,0,0-0.1,0-0.1C31.1,7.3,34,5.9,37,6.2C37.2,6.3,37.4,6.3,37.6,6.3
	C37.6,6.3,37.6,6.3,37.6,6.3z"/>
</svg>
